<mxfile host="app.diagrams.net" modified="2022-11-28T12:31:33.127Z" agent="5.0 (Macintosh; Intel Mac OS X 10_15_7) AppleWebKit/537.36 (KHTML, like Gecko) Chrome/107.0.0.0 Safari/537.36" etag="TEuijyqiz3nSZS88Owdm" version="20.6.0" type="github" pages="3">
  <diagram id="vRfZ3qEj3zfiyP7TUh5Q" name="第 1 页">
    <mxGraphModel dx="1234" dy="794" grid="1" gridSize="10" guides="1" tooltips="1" connect="1" arrows="1" fold="1" page="1" pageScale="1" pageWidth="827" pageHeight="1169" math="0" shadow="0">
      <root>
        <mxCell id="0" />
        <mxCell id="1" parent="0" />
        <mxCell id="WFtwVOTAQx-9WDqW4P2v-3" style="edgeStyle=orthogonalEdgeStyle;rounded=0;orthogonalLoop=1;jettySize=auto;html=1;exitX=0.5;exitY=1;exitDx=0;exitDy=0;" parent="1" source="WFtwVOTAQx-9WDqW4P2v-1" target="WFtwVOTAQx-9WDqW4P2v-2" edge="1">
          <mxGeometry relative="1" as="geometry" />
        </mxCell>
        <mxCell id="WFtwVOTAQx-9WDqW4P2v-1" value="" style="aspect=fixed;perimeter=ellipsePerimeter;html=1;align=center;shadow=0;dashed=0;spacingTop=3;image;image=img/lib/active_directory/users.svg;" parent="1" vertex="1">
          <mxGeometry x="130" y="60" width="39.6" height="60" as="geometry" />
        </mxCell>
        <mxCell id="WFtwVOTAQx-9WDqW4P2v-6" value="" style="edgeStyle=orthogonalEdgeStyle;rounded=0;orthogonalLoop=1;jettySize=auto;html=1;" parent="1" source="WFtwVOTAQx-9WDqW4P2v-2" target="WFtwVOTAQx-9WDqW4P2v-5" edge="1">
          <mxGeometry relative="1" as="geometry" />
        </mxCell>
        <mxCell id="WFtwVOTAQx-9WDqW4P2v-2" value="&lt;font style=&quot;font-size: 14px;&quot;&gt;msg-api&lt;/font&gt;" style="rounded=0;whiteSpace=wrap;html=1;fillColor=#fff2cc;strokeColor=#d6b656;" parent="1" vertex="1">
          <mxGeometry x="89.8" y="200" width="120" height="60" as="geometry" />
        </mxCell>
        <mxCell id="WFtwVOTAQx-9WDqW4P2v-4" value="实时/定时消息 直接调用接口" style="text;html=1;strokeColor=none;fillColor=none;align=center;verticalAlign=middle;whiteSpace=wrap;rounded=0;" parent="1" vertex="1">
          <mxGeometry x="140" y="140" width="190" height="10" as="geometry" />
        </mxCell>
        <mxCell id="WFtwVOTAQx-9WDqW4P2v-9" style="edgeStyle=orthogonalEdgeStyle;rounded=0;orthogonalLoop=1;jettySize=auto;html=1;fontSize=14;" parent="1" source="WFtwVOTAQx-9WDqW4P2v-5" target="WFtwVOTAQx-9WDqW4P2v-8" edge="1">
          <mxGeometry relative="1" as="geometry" />
        </mxCell>
        <mxCell id="WFtwVOTAQx-9WDqW4P2v-5" value="&lt;font style=&quot;font-size: 14px;&quot;&gt;RocketMQ&lt;/font&gt;" style="rounded=0;whiteSpace=wrap;html=1;fillColor=#f8cecc;strokeColor=#b85450;" parent="1" vertex="1">
          <mxGeometry x="310" y="200" width="120" height="60" as="geometry" />
        </mxCell>
        <mxCell id="WFtwVOTAQx-9WDqW4P2v-7" value="消息统一接入层" style="text;html=1;strokeColor=none;fillColor=none;align=center;verticalAlign=middle;whiteSpace=wrap;rounded=0;fontSize=14;" parent="1" vertex="1">
          <mxGeometry x="89.8" y="270" width="110" height="50" as="geometry" />
        </mxCell>
        <mxCell id="WFtwVOTAQx-9WDqW4P2v-15" style="edgeStyle=orthogonalEdgeStyle;rounded=0;orthogonalLoop=1;jettySize=auto;html=1;exitX=1;exitY=0.5;exitDx=0;exitDy=0;entryX=0;entryY=0.5;entryDx=0;entryDy=0;fontSize=14;curved=1;" parent="1" source="WFtwVOTAQx-9WDqW4P2v-8" target="WFtwVOTAQx-9WDqW4P2v-11" edge="1">
          <mxGeometry relative="1" as="geometry" />
        </mxCell>
        <mxCell id="WFtwVOTAQx-9WDqW4P2v-19" style="rounded=0;orthogonalLoop=1;jettySize=auto;html=1;fontSize=14;entryX=0;entryY=0.5;entryDx=0;entryDy=0;edgeStyle=orthogonalEdgeStyle;curved=1;" parent="1" source="WFtwVOTAQx-9WDqW4P2v-8" target="WFtwVOTAQx-9WDqW4P2v-14" edge="1">
          <mxGeometry relative="1" as="geometry">
            <mxPoint x="690" y="240" as="targetPoint" />
          </mxGeometry>
        </mxCell>
        <mxCell id="WFtwVOTAQx-9WDqW4P2v-20" style="edgeStyle=orthogonalEdgeStyle;curved=1;rounded=0;orthogonalLoop=1;jettySize=auto;html=1;entryX=0;entryY=0.5;entryDx=0;entryDy=0;fontSize=14;" parent="1" source="WFtwVOTAQx-9WDqW4P2v-8" target="WFtwVOTAQx-9WDqW4P2v-13" edge="1">
          <mxGeometry relative="1" as="geometry" />
        </mxCell>
        <mxCell id="WFtwVOTAQx-9WDqW4P2v-21" style="edgeStyle=orthogonalEdgeStyle;curved=1;rounded=0;orthogonalLoop=1;jettySize=auto;html=1;fontSize=14;" parent="1" source="WFtwVOTAQx-9WDqW4P2v-8" target="WFtwVOTAQx-9WDqW4P2v-12" edge="1">
          <mxGeometry relative="1" as="geometry" />
        </mxCell>
        <mxCell id="WFtwVOTAQx-9WDqW4P2v-23" style="edgeStyle=orthogonalEdgeStyle;curved=1;rounded=0;orthogonalLoop=1;jettySize=auto;html=1;entryX=0;entryY=0.5;entryDx=0;entryDy=0;fontSize=14;" parent="1" source="WFtwVOTAQx-9WDqW4P2v-8" target="WFtwVOTAQx-9WDqW4P2v-22" edge="1">
          <mxGeometry relative="1" as="geometry" />
        </mxCell>
        <mxCell id="WFtwVOTAQx-9WDqW4P2v-8" value="&lt;font style=&quot;font-size: 14px;&quot;&gt;msg-hander&lt;br&gt;&lt;/font&gt;" style="rounded=0;whiteSpace=wrap;html=1;fillColor=#fff2cc;strokeColor=#d6b656;" parent="1" vertex="1">
          <mxGeometry x="530" y="200" width="120" height="60" as="geometry" />
        </mxCell>
        <mxCell id="WFtwVOTAQx-9WDqW4P2v-10" value="消息逻辑处理下发" style="text;html=1;strokeColor=none;fillColor=none;align=center;verticalAlign=middle;whiteSpace=wrap;rounded=0;fontSize=14;" parent="1" vertex="1">
          <mxGeometry x="510" y="140" width="160" height="50" as="geometry" />
        </mxCell>
        <mxCell id="WFtwVOTAQx-9WDqW4P2v-25" style="edgeStyle=orthogonalEdgeStyle;curved=1;rounded=0;orthogonalLoop=1;jettySize=auto;html=1;entryX=0;entryY=0.5;entryDx=0;entryDy=0;fontSize=14;" parent="1" source="WFtwVOTAQx-9WDqW4P2v-11" target="WFtwVOTAQx-9WDqW4P2v-24" edge="1">
          <mxGeometry relative="1" as="geometry" />
        </mxCell>
        <mxCell id="WFtwVOTAQx-9WDqW4P2v-11" value="乐桃app" style="rounded=1;whiteSpace=wrap;html=1;fontSize=14;fillColor=#dae8fc;strokeColor=#6c8ebf;" parent="1" vertex="1">
          <mxGeometry x="720" y="80" width="100" height="50" as="geometry" />
        </mxCell>
        <mxCell id="WFtwVOTAQx-9WDqW4P2v-32" style="edgeStyle=orthogonalEdgeStyle;curved=1;rounded=0;orthogonalLoop=1;jettySize=auto;html=1;entryX=0;entryY=0.5;entryDx=0;entryDy=0;fontSize=14;" parent="1" source="WFtwVOTAQx-9WDqW4P2v-12" target="WFtwVOTAQx-9WDqW4P2v-31" edge="1">
          <mxGeometry relative="1" as="geometry" />
        </mxCell>
        <mxCell id="WFtwVOTAQx-9WDqW4P2v-12" value="回回app" style="rounded=1;whiteSpace=wrap;html=1;fontSize=14;fillColor=#dae8fc;strokeColor=#6c8ebf;" parent="1" vertex="1">
          <mxGeometry x="720" y="240" width="100" height="50" as="geometry" />
        </mxCell>
        <mxCell id="WFtwVOTAQx-9WDqW4P2v-30" style="edgeStyle=orthogonalEdgeStyle;curved=1;rounded=0;orthogonalLoop=1;jettySize=auto;html=1;fontSize=14;" parent="1" source="WFtwVOTAQx-9WDqW4P2v-13" target="WFtwVOTAQx-9WDqW4P2v-24" edge="1">
          <mxGeometry relative="1" as="geometry" />
        </mxCell>
        <mxCell id="WFtwVOTAQx-9WDqW4P2v-13" value="乐课网" style="rounded=1;whiteSpace=wrap;html=1;fontSize=14;fillColor=#dae8fc;strokeColor=#6c8ebf;" parent="1" vertex="1">
          <mxGeometry x="720" y="160" width="100" height="50" as="geometry" />
        </mxCell>
        <mxCell id="WFtwVOTAQx-9WDqW4P2v-29" style="edgeStyle=orthogonalEdgeStyle;curved=1;rounded=0;orthogonalLoop=1;jettySize=auto;html=1;fontSize=14;" parent="1" source="WFtwVOTAQx-9WDqW4P2v-14" target="WFtwVOTAQx-9WDqW4P2v-28" edge="1">
          <mxGeometry relative="1" as="geometry" />
        </mxCell>
        <mxCell id="WFtwVOTAQx-9WDqW4P2v-14" value="电信" style="rounded=1;whiteSpace=wrap;html=1;fontSize=14;fillColor=#dae8fc;strokeColor=#6c8ebf;" parent="1" vertex="1">
          <mxGeometry x="720" y="320" width="100" height="50" as="geometry" />
        </mxCell>
        <mxCell id="WFtwVOTAQx-9WDqW4P2v-22" value="。。。。" style="rounded=1;whiteSpace=wrap;html=1;fontSize=14;fillColor=#dae8fc;strokeColor=#6c8ebf;" parent="1" vertex="1">
          <mxGeometry x="720" y="400" width="100" height="50" as="geometry" />
        </mxCell>
        <mxCell id="WFtwVOTAQx-9WDqW4P2v-24" value="&lt;font style=&quot;font-size: 14px;&quot;&gt;DefaultPushHander&lt;br&gt;&lt;/font&gt;" style="rounded=0;whiteSpace=wrap;html=1;fillColor=#fff2cc;strokeColor=#d6b656;" parent="1" vertex="1">
          <mxGeometry x="980" y="115" width="120" height="60" as="geometry" />
        </mxCell>
        <mxCell id="WFtwVOTAQx-9WDqW4P2v-28" value="&lt;font style=&quot;font-size: 14px;&quot;&gt;DianxinPushHander&lt;br&gt;&lt;/font&gt;" style="rounded=0;whiteSpace=wrap;html=1;fillColor=#fff2cc;strokeColor=#d6b656;" parent="1" vertex="1">
          <mxGeometry x="980" y="315" width="120" height="60" as="geometry" />
        </mxCell>
        <mxCell id="WFtwVOTAQx-9WDqW4P2v-31" value="&lt;font style=&quot;font-size: 14px;&quot;&gt;HuihuiPushHander&lt;br&gt;&lt;/font&gt;" style="rounded=0;whiteSpace=wrap;html=1;fillColor=#fff2cc;strokeColor=#d6b656;" parent="1" vertex="1">
          <mxGeometry x="980" y="235" width="120" height="60" as="geometry" />
        </mxCell>
      </root>
    </mxGraphModel>
  </diagram>
  <diagram id="sQAZvHa5Spw_Sy7zTJDc" name="第 2 页">
    <mxGraphModel dx="1234" dy="794" grid="1" gridSize="10" guides="1" tooltips="1" connect="1" arrows="1" fold="1" page="1" pageScale="1" pageWidth="827" pageHeight="1169" math="0" shadow="0">
      <root>
        <mxCell id="0" />
        <mxCell id="1" parent="0" />
        <mxCell id="9TkGGuvB6Vw0x7m4uREP-6" style="rounded=0;orthogonalLoop=1;jettySize=auto;html=1;startArrow=none;" parent="1" source="9TkGGuvB6Vw0x7m4uREP-12" target="9TkGGuvB6Vw0x7m4uREP-4" edge="1">
          <mxGeometry relative="1" as="geometry" />
        </mxCell>
        <mxCell id="9TkGGuvB6Vw0x7m4uREP-7" style="edgeStyle=none;rounded=0;orthogonalLoop=1;jettySize=auto;html=1;" parent="1" source="9TkGGuvB6Vw0x7m4uREP-2" target="9TkGGuvB6Vw0x7m4uREP-5" edge="1">
          <mxGeometry relative="1" as="geometry" />
        </mxCell>
        <mxCell id="9TkGGuvB6Vw0x7m4uREP-2" value="渠道" style="ellipse;whiteSpace=wrap;html=1;fillStyle=auto;fillColor=#dae8fc;strokeColor=#6c8ebf;" parent="1" vertex="1">
          <mxGeometry x="330" y="210" width="120" height="80" as="geometry" />
        </mxCell>
        <mxCell id="9TkGGuvB6Vw0x7m4uREP-4" value="终端" style="ellipse;whiteSpace=wrap;html=1;fillStyle=auto;fillColor=#d5e8d4;strokeColor=#82b366;" parent="1" vertex="1">
          <mxGeometry x="220" y="355" width="120" height="80" as="geometry" />
        </mxCell>
        <mxCell id="9TkGGuvB6Vw0x7m4uREP-5" value="终端" style="ellipse;whiteSpace=wrap;html=1;fillStyle=auto;fillColor=#d5e8d4;strokeColor=#82b366;" parent="1" vertex="1">
          <mxGeometry x="420" y="355" width="120" height="80" as="geometry" />
        </mxCell>
        <mxCell id="9TkGGuvB6Vw0x7m4uREP-12" value="1" style="text;html=1;align=center;verticalAlign=middle;resizable=0;points=[];autosize=1;strokeColor=none;fillColor=none;fillStyle=auto;" parent="1" vertex="1">
          <mxGeometry x="340" y="290" width="30" height="30" as="geometry" />
        </mxCell>
        <mxCell id="9TkGGuvB6Vw0x7m4uREP-13" value="" style="rounded=0;orthogonalLoop=1;jettySize=auto;html=1;endArrow=none;" parent="1" source="9TkGGuvB6Vw0x7m4uREP-2" target="9TkGGuvB6Vw0x7m4uREP-12" edge="1">
          <mxGeometry relative="1" as="geometry">
            <mxPoint x="363.1015984632836" y="285.75519228661074" as="sourcePoint" />
            <mxPoint x="307.0787034578325" y="359.30534544194825" as="targetPoint" />
          </mxGeometry>
        </mxCell>
        <mxCell id="9TkGGuvB6Vw0x7m4uREP-14" value="多" style="text;html=1;align=center;verticalAlign=middle;resizable=0;points=[];autosize=1;strokeColor=none;fillColor=none;fillStyle=auto;" parent="1" vertex="1">
          <mxGeometry x="290" y="325" width="40" height="30" as="geometry" />
        </mxCell>
        <mxCell id="9TkGGuvB6Vw0x7m4uREP-16" value="一个渠道对应多个终端" style="rounded=0;whiteSpace=wrap;html=1;fillStyle=auto;labelPosition=center;verticalLabelPosition=middle;align=center;verticalAlign=middle;fillColor=#e1d5e7;strokeColor=#9673a6;fontSize=16;" parent="1" vertex="1">
          <mxGeometry x="270" y="90" width="250" height="90" as="geometry" />
        </mxCell>
        <mxCell id="vQeZBT2W8by_Q2nIW5l6-3" value="举例，业务方使用短信服务发送消息" style="rounded=0;whiteSpace=wrap;html=1;fillStyle=auto;labelPosition=center;verticalLabelPosition=middle;align=center;verticalAlign=middle;fillColor=#e1d5e7;strokeColor=#9673a6;fontSize=16;" parent="1" vertex="1">
          <mxGeometry x="730" y="90" width="200" height="60" as="geometry" />
        </mxCell>
        <mxCell id="vQeZBT2W8by_Q2nIW5l6-5" value="短信渠道" style="rounded=0;whiteSpace=wrap;html=1;fillColor=#dae8fc;strokeColor=#6c8ebf;" parent="1" vertex="1">
          <mxGeometry x="690" y="190" width="120" height="60" as="geometry" />
        </mxCell>
        <mxCell id="vQeZBT2W8by_Q2nIW5l6-18" style="edgeStyle=orthogonalEdgeStyle;rounded=0;orthogonalLoop=1;jettySize=auto;html=1;entryX=0;entryY=0.5;entryDx=0;entryDy=0;" parent="1" source="vQeZBT2W8by_Q2nIW5l6-7" target="vQeZBT2W8by_Q2nIW5l6-16" edge="1">
          <mxGeometry relative="1" as="geometry" />
        </mxCell>
        <mxCell id="vQeZBT2W8by_Q2nIW5l6-21" style="edgeStyle=orthogonalEdgeStyle;rounded=0;orthogonalLoop=1;jettySize=auto;html=1;entryX=0;entryY=0.5;entryDx=0;entryDy=0;" parent="1" source="vQeZBT2W8by_Q2nIW5l6-7" target="vQeZBT2W8by_Q2nIW5l6-20" edge="1">
          <mxGeometry relative="1" as="geometry" />
        </mxCell>
        <mxCell id="vQeZBT2W8by_Q2nIW5l6-22" style="edgeStyle=orthogonalEdgeStyle;rounded=0;orthogonalLoop=1;jettySize=auto;html=1;entryX=0;entryY=0.5;entryDx=0;entryDy=0;" parent="1" source="vQeZBT2W8by_Q2nIW5l6-7" target="vQeZBT2W8by_Q2nIW5l6-17" edge="1">
          <mxGeometry relative="1" as="geometry" />
        </mxCell>
        <mxCell id="vQeZBT2W8by_Q2nIW5l6-7" value="华为云" style="rounded=0;whiteSpace=wrap;html=1;fillColor=#dae8fc;strokeColor=#6c8ebf;" parent="1" vertex="1">
          <mxGeometry x="690" y="270" width="120" height="60" as="geometry" />
        </mxCell>
        <mxCell id="vQeZBT2W8by_Q2nIW5l6-8" value="电信" style="rounded=0;whiteSpace=wrap;html=1;fillColor=#dae8fc;strokeColor=#6c8ebf;" parent="1" vertex="1">
          <mxGeometry x="690" y="360" width="120" height="60" as="geometry" />
        </mxCell>
        <mxCell id="vQeZBT2W8by_Q2nIW5l6-16" value="终端" style="whiteSpace=wrap;html=1;fillColor=#d5e8d4;strokeColor=#82b366;rounded=0;" parent="1" vertex="1">
          <mxGeometry x="880" y="190" width="120" height="60" as="geometry" />
        </mxCell>
        <mxCell id="vQeZBT2W8by_Q2nIW5l6-17" value="A账号配置终端" style="whiteSpace=wrap;html=1;fillColor=#d5e8d4;strokeColor=#82b366;rounded=0;" parent="1" vertex="1">
          <mxGeometry x="880" y="270" width="120" height="60" as="geometry" />
        </mxCell>
        <mxCell id="vQeZBT2W8by_Q2nIW5l6-20" value="B账号配置终端" style="whiteSpace=wrap;html=1;fillColor=#d5e8d4;strokeColor=#82b366;rounded=0;" parent="1" vertex="1">
          <mxGeometry x="880" y="350" width="120" height="60" as="geometry" />
        </mxCell>
        <mxCell id="vQeZBT2W8by_Q2nIW5l6-32" style="edgeStyle=orthogonalEdgeStyle;rounded=0;orthogonalLoop=1;jettySize=auto;html=1;entryX=0;entryY=0.5;entryDx=0;entryDy=0;" parent="1" source="vQeZBT2W8by_Q2nIW5l6-25" target="vQeZBT2W8by_Q2nIW5l6-29" edge="1">
          <mxGeometry relative="1" as="geometry" />
        </mxCell>
        <mxCell id="vQeZBT2W8by_Q2nIW5l6-33" style="edgeStyle=orthogonalEdgeStyle;rounded=0;orthogonalLoop=1;jettySize=auto;html=1;" parent="1" source="vQeZBT2W8by_Q2nIW5l6-25" target="vQeZBT2W8by_Q2nIW5l6-30" edge="1">
          <mxGeometry relative="1" as="geometry" />
        </mxCell>
        <mxCell id="vQeZBT2W8by_Q2nIW5l6-35" style="edgeStyle=orthogonalEdgeStyle;rounded=0;orthogonalLoop=1;jettySize=auto;html=1;entryX=0;entryY=0.5;entryDx=0;entryDy=0;" parent="1" source="vQeZBT2W8by_Q2nIW5l6-25" target="vQeZBT2W8by_Q2nIW5l6-31" edge="1">
          <mxGeometry relative="1" as="geometry" />
        </mxCell>
        <mxCell id="vQeZBT2W8by_Q2nIW5l6-25" value="乐桃app应用渠道" style="rounded=0;whiteSpace=wrap;html=1;fillColor=#dae8fc;strokeColor=#6c8ebf;" parent="1" vertex="1">
          <mxGeometry x="690" y="630" width="120" height="60" as="geometry" />
        </mxCell>
        <mxCell id="vQeZBT2W8by_Q2nIW5l6-29" value="终端" style="whiteSpace=wrap;html=1;fillColor=#d5e8d4;strokeColor=#82b366;rounded=0;" parent="1" vertex="1">
          <mxGeometry x="880" y="540" width="120" height="60" as="geometry" />
        </mxCell>
        <mxCell id="vQeZBT2W8by_Q2nIW5l6-30" value="业务方铃铛展示位" style="whiteSpace=wrap;html=1;fillColor=#d5e8d4;strokeColor=#82b366;rounded=0;" parent="1" vertex="1">
          <mxGeometry x="880" y="630" width="120" height="60" as="geometry" />
        </mxCell>
        <mxCell id="vQeZBT2W8by_Q2nIW5l6-31" value="业务方系统通知展示" style="whiteSpace=wrap;html=1;fillColor=#d5e8d4;strokeColor=#82b366;rounded=0;" parent="1" vertex="1">
          <mxGeometry x="880" y="730" width="120" height="60" as="geometry" />
        </mxCell>
        <mxCell id="vQeZBT2W8by_Q2nIW5l6-34" style="edgeStyle=orthogonalEdgeStyle;rounded=0;orthogonalLoop=1;jettySize=auto;html=1;exitX=0.5;exitY=1;exitDx=0;exitDy=0;" parent="1" source="vQeZBT2W8by_Q2nIW5l6-30" target="vQeZBT2W8by_Q2nIW5l6-30" edge="1">
          <mxGeometry relative="1" as="geometry" />
        </mxCell>
        <mxCell id="SAeecm4sXJ2hbzOdQh_d-1" value="举例，向乐桃app发送系统通知消息" style="rounded=0;whiteSpace=wrap;html=1;fillStyle=auto;labelPosition=center;verticalLabelPosition=middle;align=center;verticalAlign=middle;fillColor=#e1d5e7;strokeColor=#9673a6;fontSize=16;" vertex="1" parent="1">
          <mxGeometry x="730" y="450" width="200" height="60" as="geometry" />
        </mxCell>
      </root>
    </mxGraphModel>
  </diagram>
  <diagram id="TmR8zUc8XILxVPYd1V2R" name="第 3 页">
    <mxGraphModel dx="1598" dy="1665" grid="1" gridSize="10" guides="1" tooltips="1" connect="1" arrows="1" fold="1" page="1" pageScale="1" pageWidth="827" pageHeight="1169" math="0" shadow="0">
      <root>
        <mxCell id="0" />
        <mxCell id="1" parent="0" />
        <mxCell id="4LS-h6VyqfhpA7ZItB4B-1" value="业务方使用华为渠道/乐课和乐桃账号&lt;br&gt;使用电信渠道/乐课和乐桃账号&lt;br&gt;发送短信" style="rounded=0;whiteSpace=wrap;html=1;fillColor=#ffe6cc;strokeColor=#d79b00;" vertex="1" parent="1">
          <mxGeometry x="220" y="140" width="330" height="90" as="geometry" />
        </mxCell>
        <mxCell id="4LS-h6VyqfhpA7ZItB4B-5" value="" style="edgeStyle=orthogonalEdgeStyle;rounded=0;orthogonalLoop=1;jettySize=auto;html=1;" edge="1" parent="1" source="4LS-h6VyqfhpA7ZItB4B-3" target="4LS-h6VyqfhpA7ZItB4B-4">
          <mxGeometry relative="1" as="geometry" />
        </mxCell>
        <mxCell id="4LS-h6VyqfhpA7ZItB4B-9" value="调用http接口" style="edgeLabel;html=1;align=center;verticalAlign=middle;resizable=0;points=[];" vertex="1" connectable="0" parent="4LS-h6VyqfhpA7ZItB4B-5">
          <mxGeometry x="-0.0667" y="1" relative="1" as="geometry">
            <mxPoint y="1" as="offset" />
          </mxGeometry>
        </mxCell>
        <mxCell id="4LS-h6VyqfhpA7ZItB4B-3" value="业务方" style="strokeWidth=2;html=1;shape=mxgraph.flowchart.start_1;whiteSpace=wrap;fillColor=#dae8fc;strokeColor=#6c8ebf;" vertex="1" parent="1">
          <mxGeometry x="50" y="240" width="100" height="60" as="geometry" />
        </mxCell>
        <mxCell id="4LS-h6VyqfhpA7ZItB4B-7" value="" style="edgeStyle=orthogonalEdgeStyle;rounded=0;orthogonalLoop=1;jettySize=auto;html=1;" edge="1" parent="1" source="4LS-h6VyqfhpA7ZItB4B-4" target="4LS-h6VyqfhpA7ZItB4B-6">
          <mxGeometry relative="1" as="geometry" />
        </mxCell>
        <mxCell id="4LS-h6VyqfhpA7ZItB4B-4" value="中台消息内核" style="whiteSpace=wrap;html=1;strokeWidth=2;fillColor=#f8cecc;strokeColor=#b85450;" vertex="1" parent="1">
          <mxGeometry x="620" y="240" width="120" height="60" as="geometry" />
        </mxCell>
        <mxCell id="4LS-h6VyqfhpA7ZItB4B-103" value="" style="edgeStyle=orthogonalEdgeStyle;rounded=0;orthogonalLoop=1;jettySize=auto;html=1;" edge="1" parent="1" source="4LS-h6VyqfhpA7ZItB4B-6" target="4LS-h6VyqfhpA7ZItB4B-102">
          <mxGeometry relative="1" as="geometry" />
        </mxCell>
        <mxCell id="4LS-h6VyqfhpA7ZItB4B-6" value="接收消息" style="whiteSpace=wrap;html=1;strokeWidth=2;fillColor=#f8cecc;strokeColor=#b85450;" vertex="1" parent="1">
          <mxGeometry x="620" y="380" width="120" height="60" as="geometry" />
        </mxCell>
        <mxCell id="4LS-h6VyqfhpA7ZItB4B-8" value="" style="strokeWidth=2;html=1;shape=mxgraph.flowchart.annotation_1;align=left;pointerEvents=1;" vertex="1" parent="1">
          <mxGeometry x="600" y="360" width="50" height="100" as="geometry" />
        </mxCell>
        <mxCell id="4LS-h6VyqfhpA7ZItB4B-18" value="AddMsgRequest" style="swimlane;fontStyle=0;childLayout=stackLayout;horizontal=1;startSize=26;fillColor=none;horizontalStack=0;resizeParent=1;resizeParentMax=0;resizeLast=0;collapsible=1;marginBottom=0;" vertex="1" parent="1">
          <mxGeometry x="60" y="390" width="150" height="208" as="geometry">
            <mxRectangle x="-100" y="290" width="100" height="30" as="alternateBounds" />
          </mxGeometry>
        </mxCell>
        <mxCell id="4LS-h6VyqfhpA7ZItB4B-19" value="+ msgSource: String" style="text;strokeColor=none;fillColor=none;align=left;verticalAlign=top;spacingLeft=4;spacingRight=4;overflow=hidden;rotatable=0;points=[[0,0.5],[1,0.5]];portConstraint=eastwest;" vertex="1" parent="4LS-h6VyqfhpA7ZItB4B-18">
          <mxGeometry y="26" width="150" height="26" as="geometry" />
        </mxCell>
        <mxCell id="4LS-h6VyqfhpA7ZItB4B-20" value="+ msgKey: String" style="text;strokeColor=none;fillColor=none;align=left;verticalAlign=top;spacingLeft=4;spacingRight=4;overflow=hidden;rotatable=0;points=[[0,0.5],[1,0.5]];portConstraint=eastwest;" vertex="1" parent="4LS-h6VyqfhpA7ZItB4B-18">
          <mxGeometry y="52" width="150" height="26" as="geometry" />
        </mxCell>
        <mxCell id="4LS-h6VyqfhpA7ZItB4B-91" value="+ pushTerminals: Map" style="text;strokeColor=none;fillColor=none;align=left;verticalAlign=top;spacingLeft=4;spacingRight=4;overflow=hidden;rotatable=0;points=[[0,0.5],[1,0.5]];portConstraint=eastwest;" vertex="1" parent="4LS-h6VyqfhpA7ZItB4B-18">
          <mxGeometry y="78" width="150" height="26" as="geometry" />
        </mxCell>
        <mxCell id="4LS-h6VyqfhpA7ZItB4B-90" value="+ msg_title: String" style="text;strokeColor=none;fillColor=none;align=left;verticalAlign=top;spacingLeft=4;spacingRight=4;overflow=hidden;rotatable=0;points=[[0,0.5],[1,0.5]];portConstraint=eastwest;" vertex="1" parent="4LS-h6VyqfhpA7ZItB4B-18">
          <mxGeometry y="104" width="150" height="26" as="geometry" />
        </mxCell>
        <mxCell id="4LS-h6VyqfhpA7ZItB4B-89" value="+ msg_content: Map" style="text;strokeColor=none;fillColor=none;align=left;verticalAlign=top;spacingLeft=4;spacingRight=4;overflow=hidden;rotatable=0;points=[[0,0.5],[1,0.5]];portConstraint=eastwest;" vertex="1" parent="4LS-h6VyqfhpA7ZItB4B-18">
          <mxGeometry y="130" width="150" height="26" as="geometry" />
        </mxCell>
        <mxCell id="4LS-h6VyqfhpA7ZItB4B-95" value="+ msg_ext: Map" style="text;strokeColor=none;fillColor=none;align=left;verticalAlign=top;spacingLeft=4;spacingRight=4;overflow=hidden;rotatable=0;points=[[0,0.5],[1,0.5]];portConstraint=eastwest;" vertex="1" parent="4LS-h6VyqfhpA7ZItB4B-18">
          <mxGeometry y="156" width="150" height="26" as="geometry" />
        </mxCell>
        <mxCell id="4LS-h6VyqfhpA7ZItB4B-94" value="+ sendTime: Date" style="text;strokeColor=none;fillColor=none;align=left;verticalAlign=top;spacingLeft=4;spacingRight=4;overflow=hidden;rotatable=0;points=[[0,0.5],[1,0.5]];portConstraint=eastwest;" vertex="1" parent="4LS-h6VyqfhpA7ZItB4B-18">
          <mxGeometry y="182" width="150" height="26" as="geometry" />
        </mxCell>
        <mxCell id="4LS-h6VyqfhpA7ZItB4B-23" value="&lt;span style=&quot;text-align: left;&quot;&gt;pushTerminals Map&lt;/span&gt;" style="swimlane;fontStyle=0;childLayout=stackLayout;horizontal=1;startSize=26;fillColor=none;horizontalStack=0;resizeParent=1;resizeParentMax=0;resizeLast=0;collapsible=1;marginBottom=0;html=1;" vertex="1" parent="1">
          <mxGeometry x="220" y="400" width="360" height="90" as="geometry" />
        </mxCell>
        <mxCell id="4LS-h6VyqfhpA7ZItB4B-24" value="key=huaweiyun, value={&lt;span style=&quot;text-align: center;&quot;&gt;huaweiyun_letao&lt;/span&gt;,&lt;span style=&quot;text-align: center;&quot;&gt;&amp;nbsp;huaweiyun_leke&lt;/span&gt;}" style="text;strokeColor=none;fillColor=none;align=left;verticalAlign=top;spacingLeft=4;spacingRight=4;overflow=hidden;rotatable=0;points=[[0,0.5],[1,0.5]];portConstraint=eastwest;whiteSpace=wrap;html=1;" vertex="1" parent="4LS-h6VyqfhpA7ZItB4B-23">
          <mxGeometry y="26" width="360" height="26" as="geometry" />
        </mxCell>
        <mxCell id="4LS-h6VyqfhpA7ZItB4B-25" value="key=dianxin,value={&lt;span style=&quot;text-align: center;&quot;&gt;dainxin_letao,&lt;/span&gt;&lt;span style=&quot;text-align: center;&quot;&gt;dainxin_leke&lt;/span&gt;}" style="text;strokeColor=none;fillColor=none;align=left;verticalAlign=top;spacingLeft=4;spacingRight=4;overflow=hidden;rotatable=0;points=[[0,0.5],[1,0.5]];portConstraint=eastwest;whiteSpace=wrap;html=1;" vertex="1" parent="4LS-h6VyqfhpA7ZItB4B-23">
          <mxGeometry y="52" width="360" height="38" as="geometry" />
        </mxCell>
        <mxCell id="4LS-h6VyqfhpA7ZItB4B-27" value="渠道表" style="shape=table;startSize=30;container=1;collapsible=0;childLayout=tableLayout;fontStyle=1;align=center;" vertex="1" parent="1">
          <mxGeometry x="20" y="-180" width="259.9999999999999" height="160" as="geometry" />
        </mxCell>
        <mxCell id="4LS-h6VyqfhpA7ZItB4B-28" value="" style="shape=tableRow;horizontal=0;startSize=0;swimlaneHead=0;swimlaneBody=0;top=0;left=0;bottom=0;right=0;collapsible=0;dropTarget=0;fillColor=none;points=[[0,0.5],[1,0.5]];portConstraint=eastwest;" vertex="1" parent="4LS-h6VyqfhpA7ZItB4B-27">
          <mxGeometry y="30" width="259.9999999999999" height="41" as="geometry" />
        </mxCell>
        <mxCell id="4LS-h6VyqfhpA7ZItB4B-29" value="id" style="shape=partialRectangle;html=1;whiteSpace=wrap;connectable=0;fillColor=none;top=0;left=0;bottom=0;right=0;overflow=hidden;" vertex="1" parent="4LS-h6VyqfhpA7ZItB4B-28">
          <mxGeometry width="83" height="41" as="geometry">
            <mxRectangle width="83" height="41" as="alternateBounds" />
          </mxGeometry>
        </mxCell>
        <mxCell id="4LS-h6VyqfhpA7ZItB4B-30" value="channelCode" style="shape=partialRectangle;html=1;whiteSpace=wrap;connectable=0;fillColor=none;top=0;left=0;bottom=0;right=0;overflow=hidden;" vertex="1" parent="4LS-h6VyqfhpA7ZItB4B-28">
          <mxGeometry x="83" width="94" height="41" as="geometry">
            <mxRectangle width="94" height="41" as="alternateBounds" />
          </mxGeometry>
        </mxCell>
        <mxCell id="4LS-h6VyqfhpA7ZItB4B-31" value="channelName" style="shape=partialRectangle;html=1;whiteSpace=wrap;connectable=0;fillColor=none;top=0;left=0;bottom=0;right=0;overflow=hidden;" vertex="1" parent="4LS-h6VyqfhpA7ZItB4B-28">
          <mxGeometry x="177" width="83" height="41" as="geometry">
            <mxRectangle width="83" height="41" as="alternateBounds" />
          </mxGeometry>
        </mxCell>
        <mxCell id="4LS-h6VyqfhpA7ZItB4B-32" value="" style="shape=tableRow;horizontal=0;startSize=0;swimlaneHead=0;swimlaneBody=0;top=0;left=0;bottom=0;right=0;collapsible=0;dropTarget=0;fillColor=none;points=[[0,0.5],[1,0.5]];portConstraint=eastwest;" vertex="1" parent="4LS-h6VyqfhpA7ZItB4B-27">
          <mxGeometry y="71" width="259.9999999999999" height="45" as="geometry" />
        </mxCell>
        <mxCell id="4LS-h6VyqfhpA7ZItB4B-33" value="1" style="shape=partialRectangle;html=1;whiteSpace=wrap;connectable=0;fillColor=none;top=0;left=0;bottom=0;right=0;overflow=hidden;" vertex="1" parent="4LS-h6VyqfhpA7ZItB4B-32">
          <mxGeometry width="83" height="45" as="geometry">
            <mxRectangle width="83" height="45" as="alternateBounds" />
          </mxGeometry>
        </mxCell>
        <mxCell id="4LS-h6VyqfhpA7ZItB4B-34" value="huaweiyun" style="shape=partialRectangle;html=1;whiteSpace=wrap;connectable=0;fillColor=none;top=0;left=0;bottom=0;right=0;overflow=hidden;" vertex="1" parent="4LS-h6VyqfhpA7ZItB4B-32">
          <mxGeometry x="83" width="94" height="45" as="geometry">
            <mxRectangle width="94" height="45" as="alternateBounds" />
          </mxGeometry>
        </mxCell>
        <mxCell id="4LS-h6VyqfhpA7ZItB4B-35" value="华为云" style="shape=partialRectangle;html=1;whiteSpace=wrap;connectable=0;fillColor=none;top=0;left=0;bottom=0;right=0;overflow=hidden;" vertex="1" parent="4LS-h6VyqfhpA7ZItB4B-32">
          <mxGeometry x="177" width="83" height="45" as="geometry">
            <mxRectangle width="83" height="45" as="alternateBounds" />
          </mxGeometry>
        </mxCell>
        <mxCell id="4LS-h6VyqfhpA7ZItB4B-36" value="" style="shape=tableRow;horizontal=0;startSize=0;swimlaneHead=0;swimlaneBody=0;top=0;left=0;bottom=0;right=0;collapsible=0;dropTarget=0;fillColor=none;points=[[0,0.5],[1,0.5]];portConstraint=eastwest;" vertex="1" parent="4LS-h6VyqfhpA7ZItB4B-27">
          <mxGeometry y="116" width="259.9999999999999" height="44" as="geometry" />
        </mxCell>
        <mxCell id="4LS-h6VyqfhpA7ZItB4B-37" value="2" style="shape=partialRectangle;html=1;whiteSpace=wrap;connectable=0;fillColor=none;top=0;left=0;bottom=0;right=0;overflow=hidden;" vertex="1" parent="4LS-h6VyqfhpA7ZItB4B-36">
          <mxGeometry width="83" height="44" as="geometry">
            <mxRectangle width="83" height="44" as="alternateBounds" />
          </mxGeometry>
        </mxCell>
        <mxCell id="4LS-h6VyqfhpA7ZItB4B-38" value="dianxin" style="shape=partialRectangle;html=1;whiteSpace=wrap;connectable=0;fillColor=none;top=0;left=0;bottom=0;right=0;overflow=hidden;" vertex="1" parent="4LS-h6VyqfhpA7ZItB4B-36">
          <mxGeometry x="83" width="94" height="44" as="geometry">
            <mxRectangle width="94" height="44" as="alternateBounds" />
          </mxGeometry>
        </mxCell>
        <mxCell id="4LS-h6VyqfhpA7ZItB4B-39" value="电信" style="shape=partialRectangle;html=1;whiteSpace=wrap;connectable=0;fillColor=none;top=0;left=0;bottom=0;right=0;overflow=hidden;" vertex="1" parent="4LS-h6VyqfhpA7ZItB4B-36">
          <mxGeometry x="177" width="83" height="44" as="geometry">
            <mxRectangle width="83" height="44" as="alternateBounds" />
          </mxGeometry>
        </mxCell>
        <mxCell id="4LS-h6VyqfhpA7ZItB4B-40" value="渠道终端表" style="shape=table;startSize=30;container=1;collapsible=0;childLayout=tableLayout;fontStyle=1;align=center;" vertex="1" parent="1">
          <mxGeometry x="360" y="-180" width="380.0000000000001" height="248" as="geometry" />
        </mxCell>
        <mxCell id="4LS-h6VyqfhpA7ZItB4B-41" value="" style="shape=tableRow;horizontal=0;startSize=0;swimlaneHead=0;swimlaneBody=0;top=0;left=0;bottom=0;right=0;collapsible=0;dropTarget=0;fillColor=none;points=[[0,0.5],[1,0.5]];portConstraint=eastwest;" vertex="1" parent="4LS-h6VyqfhpA7ZItB4B-40">
          <mxGeometry y="30" width="380.0000000000001" height="41" as="geometry" />
        </mxCell>
        <mxCell id="4LS-h6VyqfhpA7ZItB4B-42" value="id" style="shape=partialRectangle;html=1;whiteSpace=wrap;connectable=0;fillColor=none;top=0;left=0;bottom=0;right=0;overflow=hidden;" vertex="1" parent="4LS-h6VyqfhpA7ZItB4B-41">
          <mxGeometry width="83" height="41" as="geometry">
            <mxRectangle width="83" height="41" as="alternateBounds" />
          </mxGeometry>
        </mxCell>
        <mxCell id="4LS-h6VyqfhpA7ZItB4B-43" value="channelCode" style="shape=partialRectangle;html=1;whiteSpace=wrap;connectable=0;fillColor=none;top=0;left=0;bottom=0;right=0;overflow=hidden;" vertex="1" parent="4LS-h6VyqfhpA7ZItB4B-41">
          <mxGeometry x="83" width="94" height="41" as="geometry">
            <mxRectangle width="94" height="41" as="alternateBounds" />
          </mxGeometry>
        </mxCell>
        <mxCell id="4LS-h6VyqfhpA7ZItB4B-44" value="teminalCode" style="shape=partialRectangle;html=1;whiteSpace=wrap;connectable=0;fillColor=none;top=0;left=0;bottom=0;right=0;overflow=hidden;" vertex="1" parent="4LS-h6VyqfhpA7ZItB4B-41">
          <mxGeometry x="177" width="103" height="41" as="geometry">
            <mxRectangle width="103" height="41" as="alternateBounds" />
          </mxGeometry>
        </mxCell>
        <mxCell id="4LS-h6VyqfhpA7ZItB4B-60" value="teminalName" style="shape=partialRectangle;html=1;whiteSpace=wrap;connectable=0;fillColor=none;top=0;left=0;bottom=0;right=0;overflow=hidden;" vertex="1" parent="4LS-h6VyqfhpA7ZItB4B-41">
          <mxGeometry x="280" width="100" height="41" as="geometry">
            <mxRectangle width="100" height="41" as="alternateBounds" />
          </mxGeometry>
        </mxCell>
        <mxCell id="4LS-h6VyqfhpA7ZItB4B-45" value="" style="shape=tableRow;horizontal=0;startSize=0;swimlaneHead=0;swimlaneBody=0;top=0;left=0;bottom=0;right=0;collapsible=0;dropTarget=0;fillColor=none;points=[[0,0.5],[1,0.5]];portConstraint=eastwest;" vertex="1" parent="4LS-h6VyqfhpA7ZItB4B-40">
          <mxGeometry y="71" width="380.0000000000001" height="45" as="geometry" />
        </mxCell>
        <mxCell id="4LS-h6VyqfhpA7ZItB4B-46" value="1" style="shape=partialRectangle;html=1;whiteSpace=wrap;connectable=0;fillColor=none;top=0;left=0;bottom=0;right=0;overflow=hidden;" vertex="1" parent="4LS-h6VyqfhpA7ZItB4B-45">
          <mxGeometry width="83" height="45" as="geometry">
            <mxRectangle width="83" height="45" as="alternateBounds" />
          </mxGeometry>
        </mxCell>
        <mxCell id="4LS-h6VyqfhpA7ZItB4B-47" value="huaweiyun" style="shape=partialRectangle;html=1;whiteSpace=wrap;connectable=0;fillColor=none;top=0;left=0;bottom=0;right=0;overflow=hidden;" vertex="1" parent="4LS-h6VyqfhpA7ZItB4B-45">
          <mxGeometry x="83" width="94" height="45" as="geometry">
            <mxRectangle width="94" height="45" as="alternateBounds" />
          </mxGeometry>
        </mxCell>
        <mxCell id="4LS-h6VyqfhpA7ZItB4B-48" value="huaweiyun_letao" style="shape=partialRectangle;html=1;whiteSpace=wrap;connectable=0;fillColor=none;top=0;left=0;bottom=0;right=0;overflow=hidden;" vertex="1" parent="4LS-h6VyqfhpA7ZItB4B-45">
          <mxGeometry x="177" width="103" height="45" as="geometry">
            <mxRectangle width="103" height="45" as="alternateBounds" />
          </mxGeometry>
        </mxCell>
        <mxCell id="4LS-h6VyqfhpA7ZItB4B-61" value="乐桃在华为云申请的账号" style="shape=partialRectangle;html=1;whiteSpace=wrap;connectable=0;fillColor=none;top=0;left=0;bottom=0;right=0;overflow=hidden;" vertex="1" parent="4LS-h6VyqfhpA7ZItB4B-45">
          <mxGeometry x="280" width="100" height="45" as="geometry">
            <mxRectangle width="100" height="45" as="alternateBounds" />
          </mxGeometry>
        </mxCell>
        <mxCell id="4LS-h6VyqfhpA7ZItB4B-49" value="" style="shape=tableRow;horizontal=0;startSize=0;swimlaneHead=0;swimlaneBody=0;top=0;left=0;bottom=0;right=0;collapsible=0;dropTarget=0;fillColor=none;points=[[0,0.5],[1,0.5]];portConstraint=eastwest;" vertex="1" parent="4LS-h6VyqfhpA7ZItB4B-40">
          <mxGeometry y="116" width="380.0000000000001" height="44" as="geometry" />
        </mxCell>
        <mxCell id="4LS-h6VyqfhpA7ZItB4B-50" value="2" style="shape=partialRectangle;html=1;whiteSpace=wrap;connectable=0;fillColor=none;top=0;left=0;bottom=0;right=0;overflow=hidden;" vertex="1" parent="4LS-h6VyqfhpA7ZItB4B-49">
          <mxGeometry width="83" height="44" as="geometry">
            <mxRectangle width="83" height="44" as="alternateBounds" />
          </mxGeometry>
        </mxCell>
        <mxCell id="4LS-h6VyqfhpA7ZItB4B-51" value="huaweiyun" style="shape=partialRectangle;html=1;whiteSpace=wrap;connectable=0;fillColor=none;top=0;left=0;bottom=0;right=0;overflow=hidden;" vertex="1" parent="4LS-h6VyqfhpA7ZItB4B-49">
          <mxGeometry x="83" width="94" height="44" as="geometry">
            <mxRectangle width="94" height="44" as="alternateBounds" />
          </mxGeometry>
        </mxCell>
        <mxCell id="4LS-h6VyqfhpA7ZItB4B-52" value="huaweiyun_leke" style="shape=partialRectangle;html=1;whiteSpace=wrap;connectable=0;fillColor=none;top=0;left=0;bottom=0;right=0;overflow=hidden;" vertex="1" parent="4LS-h6VyqfhpA7ZItB4B-49">
          <mxGeometry x="177" width="103" height="44" as="geometry">
            <mxRectangle width="103" height="44" as="alternateBounds" />
          </mxGeometry>
        </mxCell>
        <mxCell id="4LS-h6VyqfhpA7ZItB4B-62" value="乐课在华为云申请的账号" style="shape=partialRectangle;html=1;whiteSpace=wrap;connectable=0;fillColor=none;top=0;left=0;bottom=0;right=0;overflow=hidden;" vertex="1" parent="4LS-h6VyqfhpA7ZItB4B-49">
          <mxGeometry x="280" width="100" height="44" as="geometry">
            <mxRectangle width="100" height="44" as="alternateBounds" />
          </mxGeometry>
        </mxCell>
        <mxCell id="4LS-h6VyqfhpA7ZItB4B-69" style="shape=tableRow;horizontal=0;startSize=0;swimlaneHead=0;swimlaneBody=0;top=0;left=0;bottom=0;right=0;collapsible=0;dropTarget=0;fillColor=none;points=[[0,0.5],[1,0.5]];portConstraint=eastwest;" vertex="1" parent="4LS-h6VyqfhpA7ZItB4B-40">
          <mxGeometry y="160" width="380.0000000000001" height="44" as="geometry" />
        </mxCell>
        <mxCell id="4LS-h6VyqfhpA7ZItB4B-70" value="3" style="shape=partialRectangle;html=1;whiteSpace=wrap;connectable=0;fillColor=none;top=0;left=0;bottom=0;right=0;overflow=hidden;" vertex="1" parent="4LS-h6VyqfhpA7ZItB4B-69">
          <mxGeometry width="83" height="44" as="geometry">
            <mxRectangle width="83" height="44" as="alternateBounds" />
          </mxGeometry>
        </mxCell>
        <mxCell id="4LS-h6VyqfhpA7ZItB4B-71" value="dainxin" style="shape=partialRectangle;html=1;whiteSpace=wrap;connectable=0;fillColor=none;top=0;left=0;bottom=0;right=0;overflow=hidden;" vertex="1" parent="4LS-h6VyqfhpA7ZItB4B-69">
          <mxGeometry x="83" width="94" height="44" as="geometry">
            <mxRectangle width="94" height="44" as="alternateBounds" />
          </mxGeometry>
        </mxCell>
        <mxCell id="4LS-h6VyqfhpA7ZItB4B-72" value="dainxin_letao" style="shape=partialRectangle;html=1;whiteSpace=wrap;connectable=0;fillColor=none;top=0;left=0;bottom=0;right=0;overflow=hidden;" vertex="1" parent="4LS-h6VyqfhpA7ZItB4B-69">
          <mxGeometry x="177" width="103" height="44" as="geometry">
            <mxRectangle width="103" height="44" as="alternateBounds" />
          </mxGeometry>
        </mxCell>
        <mxCell id="4LS-h6VyqfhpA7ZItB4B-73" value="乐桃在电信申请的账号" style="shape=partialRectangle;html=1;whiteSpace=wrap;connectable=0;fillColor=none;top=0;left=0;bottom=0;right=0;overflow=hidden;" vertex="1" parent="4LS-h6VyqfhpA7ZItB4B-69">
          <mxGeometry x="280" width="100" height="44" as="geometry">
            <mxRectangle width="100" height="44" as="alternateBounds" />
          </mxGeometry>
        </mxCell>
        <mxCell id="4LS-h6VyqfhpA7ZItB4B-74" style="shape=tableRow;horizontal=0;startSize=0;swimlaneHead=0;swimlaneBody=0;top=0;left=0;bottom=0;right=0;collapsible=0;dropTarget=0;fillColor=none;points=[[0,0.5],[1,0.5]];portConstraint=eastwest;" vertex="1" parent="4LS-h6VyqfhpA7ZItB4B-40">
          <mxGeometry y="204" width="380.0000000000001" height="44" as="geometry" />
        </mxCell>
        <mxCell id="4LS-h6VyqfhpA7ZItB4B-75" value="4" style="shape=partialRectangle;html=1;whiteSpace=wrap;connectable=0;fillColor=none;top=0;left=0;bottom=0;right=0;overflow=hidden;" vertex="1" parent="4LS-h6VyqfhpA7ZItB4B-74">
          <mxGeometry width="83" height="44" as="geometry">
            <mxRectangle width="83" height="44" as="alternateBounds" />
          </mxGeometry>
        </mxCell>
        <mxCell id="4LS-h6VyqfhpA7ZItB4B-76" value="dianxin" style="shape=partialRectangle;html=1;whiteSpace=wrap;connectable=0;fillColor=none;top=0;left=0;bottom=0;right=0;overflow=hidden;" vertex="1" parent="4LS-h6VyqfhpA7ZItB4B-74">
          <mxGeometry x="83" width="94" height="44" as="geometry">
            <mxRectangle width="94" height="44" as="alternateBounds" />
          </mxGeometry>
        </mxCell>
        <mxCell id="4LS-h6VyqfhpA7ZItB4B-77" value="dainxin_leke" style="shape=partialRectangle;html=1;whiteSpace=wrap;connectable=0;fillColor=none;top=0;left=0;bottom=0;right=0;overflow=hidden;" vertex="1" parent="4LS-h6VyqfhpA7ZItB4B-74">
          <mxGeometry x="177" width="103" height="44" as="geometry">
            <mxRectangle width="103" height="44" as="alternateBounds" />
          </mxGeometry>
        </mxCell>
        <mxCell id="4LS-h6VyqfhpA7ZItB4B-78" value="乐课在电信申请的账号" style="shape=partialRectangle;html=1;whiteSpace=wrap;connectable=0;fillColor=none;top=0;left=0;bottom=0;right=0;overflow=hidden;" vertex="1" parent="4LS-h6VyqfhpA7ZItB4B-74">
          <mxGeometry x="280" width="100" height="44" as="geometry">
            <mxRectangle width="100" height="44" as="alternateBounds" />
          </mxGeometry>
        </mxCell>
        <mxCell id="4LS-h6VyqfhpA7ZItB4B-97" style="edgeStyle=orthogonalEdgeStyle;rounded=0;orthogonalLoop=1;jettySize=auto;html=1;entryX=0.5;entryY=0;entryDx=0;entryDy=0;exitX=0.5;exitY=1;exitDx=0;exitDy=0;exitPerimeter=0;" edge="1" parent="1" source="4LS-h6VyqfhpA7ZItB4B-99" target="4LS-h6VyqfhpA7ZItB4B-18">
          <mxGeometry relative="1" as="geometry">
            <mxPoint x="-140" y="370" as="sourcePoint" />
          </mxGeometry>
        </mxCell>
        <mxCell id="4LS-h6VyqfhpA7ZItB4B-99" value="接收的消息对象" style="shape=note;whiteSpace=wrap;html=1;backgroundOutline=1;darkOpacity=0.05;fillColor=#fff2cc;strokeColor=#d6b656;" vertex="1" parent="1">
          <mxGeometry x="-70" y="350" width="80" height="100" as="geometry" />
        </mxCell>
        <mxCell id="4LS-h6VyqfhpA7ZItB4B-101" style="edgeStyle=orthogonalEdgeStyle;rounded=0;orthogonalLoop=1;jettySize=auto;html=1;entryX=0.474;entryY=0.014;entryDx=0;entryDy=0;entryPerimeter=0;" edge="1" parent="1" source="4LS-h6VyqfhpA7ZItB4B-100" target="4LS-h6VyqfhpA7ZItB4B-23">
          <mxGeometry relative="1" as="geometry" />
        </mxCell>
        <mxCell id="4LS-h6VyqfhpA7ZItB4B-100" value="推送的渠道及终端" style="shape=note;whiteSpace=wrap;html=1;backgroundOutline=1;darkOpacity=0.05;fillColor=#fff2cc;strokeColor=#d6b656;" vertex="1" parent="1">
          <mxGeometry x="400" y="300" width="130" height="60" as="geometry" />
        </mxCell>
        <mxCell id="4LS-h6VyqfhpA7ZItB4B-105" value="" style="edgeStyle=orthogonalEdgeStyle;rounded=0;orthogonalLoop=1;jettySize=auto;html=1;" edge="1" parent="1" source="4LS-h6VyqfhpA7ZItB4B-102" target="4LS-h6VyqfhpA7ZItB4B-104">
          <mxGeometry relative="1" as="geometry" />
        </mxCell>
        <mxCell id="4LS-h6VyqfhpA7ZItB4B-102" value="mq发送消息" style="whiteSpace=wrap;html=1;fillColor=#f8cecc;strokeColor=#b85450;strokeWidth=2;" vertex="1" parent="1">
          <mxGeometry x="620" y="520" width="120" height="60" as="geometry" />
        </mxCell>
        <mxCell id="4LS-h6VyqfhpA7ZItB4B-107" value="" style="edgeStyle=orthogonalEdgeStyle;rounded=0;orthogonalLoop=1;jettySize=auto;html=1;" edge="1" parent="1" source="4LS-h6VyqfhpA7ZItB4B-104" target="4LS-h6VyqfhpA7ZItB4B-106">
          <mxGeometry relative="1" as="geometry" />
        </mxCell>
        <mxCell id="4LS-h6VyqfhpA7ZItB4B-108" value="是" style="edgeLabel;html=1;align=center;verticalAlign=middle;resizable=0;points=[];" vertex="1" connectable="0" parent="4LS-h6VyqfhpA7ZItB4B-107">
          <mxGeometry x="-0.2667" y="2" relative="1" as="geometry">
            <mxPoint as="offset" />
          </mxGeometry>
        </mxCell>
        <mxCell id="4LS-h6VyqfhpA7ZItB4B-110" value="" style="edgeStyle=orthogonalEdgeStyle;rounded=0;orthogonalLoop=1;jettySize=auto;html=1;" edge="1" parent="1" source="4LS-h6VyqfhpA7ZItB4B-104" target="4LS-h6VyqfhpA7ZItB4B-109">
          <mxGeometry relative="1" as="geometry" />
        </mxCell>
        <mxCell id="4LS-h6VyqfhpA7ZItB4B-111" value="否" style="edgeLabel;html=1;align=center;verticalAlign=middle;resizable=0;points=[];" vertex="1" connectable="0" parent="4LS-h6VyqfhpA7ZItB4B-110">
          <mxGeometry x="-0.0625" y="-1" relative="1" as="geometry">
            <mxPoint as="offset" />
          </mxGeometry>
        </mxCell>
        <mxCell id="4LS-h6VyqfhpA7ZItB4B-104" value="发送时间当前时间" style="rhombus;whiteSpace=wrap;html=1;fillColor=#f8cecc;strokeColor=#b85450;strokeWidth=2;" vertex="1" parent="1">
          <mxGeometry x="640" y="650" width="80" height="80" as="geometry" />
        </mxCell>
        <mxCell id="4LS-h6VyqfhpA7ZItB4B-106" value="发送延时mq" style="whiteSpace=wrap;html=1;fillColor=#f8cecc;strokeColor=#b85450;strokeWidth=2;" vertex="1" parent="1">
          <mxGeometry x="810" y="660" width="120" height="60" as="geometry" />
        </mxCell>
        <mxCell id="4LS-h6VyqfhpA7ZItB4B-109" value="发送实时mq" style="whiteSpace=wrap;html=1;fillColor=#f8cecc;strokeColor=#b85450;strokeWidth=2;" vertex="1" parent="1">
          <mxGeometry x="620" y="820" width="120" height="60" as="geometry" />
        </mxCell>
      </root>
    </mxGraphModel>
  </diagram>
</mxfile>
